<svg width="61" height="58" viewBox="0 0 61 58" fill="none" xmlns="http://www.w3.org/2000/svg">
<g clip-path="url(#clip0_77_304)">
<path d="M39.3958 33.8333H37.3879L36.6762 33.1808C39.1671 30.4258 40.6667 26.8492 40.6667 22.9583C40.6667 14.2825 33.2704 7.25 24.1458 7.25C15.0212 7.25 7.625 14.2825 7.625 22.9583C7.625 31.6342 15.0212 38.6667 24.1458 38.6667C28.2379 38.6667 31.9996 37.2408 34.8971 34.8725L35.5833 35.5492V37.4583L48.2917 49.5175L52.0787 45.9167L39.3958 33.8333ZM24.1458 33.8333C17.8171 33.8333 12.7083 28.9758 12.7083 22.9583C12.7083 16.9408 17.8171 12.0833 24.1458 12.0833C30.4746 12.0833 35.5833 16.9408 35.5833 22.9583C35.5833 28.9758 30.4746 33.8333 24.1458 33.8333Z" fill="#4F281B"/>
</g>
<defs>
<clipPath id="clip0_77_304">
<rect width="61" height="58" fill="white"/>
</clipPath>
</defs>
</svg>
